<?xml version="1.0" encoding="UTF-8" standalone="no"?>
<!-- Generator: Adobe Illustrator 16.0.0, SVG Export Plug-In . SVG Version: 6.00 Build 0)  -->

<svg
   xmlns:dc="http://purl.org/dc/elements/1.1/"
   xmlns:cc="http://creativecommons.org/ns#"
   xmlns:rdf="http://www.w3.org/1999/02/22-rdf-syntax-ns#"
   xmlns:svg="http://www.w3.org/2000/svg"
   xmlns="http://www.w3.org/2000/svg"
   xmlns:sodipodi="http://sodipodi.sourceforge.net/DTD/sodipodi-0.dtd"
   xmlns:inkscape="http://www.inkscape.org/namespaces/inkscape"
   version="1.1"
   id="Layer_1"
   x="0px"
   y="0px"
   width="24px"
   height="24px"
   viewBox="0 0 24 24"
   enable-background="new 0 0 24 24"
   xml:space="preserve"
   inkscape:version="0.91 r13725"
   sodipodi:docname="google-play.svg"><metadata
     id="metadata17"><rdf:RDF><cc:Work
         rdf:about=""><dc:format>image/svg+xml</dc:format><dc:type
           rdf:resource="http://purl.org/dc/dcmitype/StillImage" /><dc:title></dc:title></cc:Work></rdf:RDF></metadata><defs
     id="defs15" /><sodipodi:namedview
     pagecolor="#ffffff"
     bordercolor="#666666"
     borderopacity="1"
     objecttolerance="10"
     gridtolerance="10"
     guidetolerance="10"
     inkscape:pageopacity="0"
     inkscape:pageshadow="2"
     inkscape:window-width="1234"
     inkscape:window-height="760"
     id="namedview13"
     showgrid="false"
     inkscape:zoom="9.8333333"
     inkscape:cx="-3.0508475"
     inkscape:cy="12"
     inkscape:window-x="-8"
     inkscape:window-y="-8"
     inkscape:window-maximized="1"
     inkscape:current-layer="Layer_1" /><g
     id="g3"
     style="fill:#ffffff;fill-opacity:1"><polygon
       points="16.226,8.34 13.768,11.365 6.921,2.939  "
       id="polygon5"
       style="fill:#ffffff;fill-opacity:1" /><path
       d="M3.75,22.6c-0.797,0-1.273-0.711-1.273-1.902V3.302C2.476,2.73,2.599,1.4,3.733,1.4c0.35,0,0.764,0.133,1.197,0.383   l0.093,0.054C5.038,1.871,5.05,1.905,5.075,1.935L13.252,12L5.075,22.065C5.046,22.1,5.03,22.14,5.014,22.18l-0.063,0.037   C4.517,22.467,4.101,22.6,3.75,22.6z"
       id="path7"
       style="fill:#ffffff;fill-opacity:1" /><polygon
       points="13.768,12.635 16.216,15.647 6.912,21.073  "
       id="polygon9"
       style="fill:#ffffff;fill-opacity:1" /><path
       d="M20.368,13.518l-2.952,1.722L14.784,12l2.643-3.252l2.987,1.734c0.716,0.413,1.11,0.942,1.11,1.492   C21.525,12.53,21.104,13.093,20.368,13.518z"
       id="path11"
       style="fill:#ffffff;fill-opacity:1" /></g></svg>